<svg width="227" height="17" viewBox="0 0 227 17" fill="none" xmlns="http://www.w3.org/2000/svg">
<path fill-rule="evenodd" clip-rule="evenodd" d="M0 0H8.064V0.684H0.792V5.832H7.344V6.516H0.792V12.852H0V0ZM9.378 5.652H9.432C9.516 5.352 9.669 5.07 9.891 4.806C10.113 4.542 10.383 4.314 10.701 4.122C11.019 3.93 11.373 3.783 11.763 3.681C12.153 3.579 12.558 3.534 12.978 3.546V4.23C12.618 4.182 12.207 4.218 11.745 4.338C11.283 4.458 10.842 4.722 10.422 5.13C10.254 5.31 10.107 5.484 9.981 5.652C9.855 5.82 9.75 6.006 9.666 6.21C9.582 6.414 9.516 6.642 9.468 6.894C9.42 7.146 9.39 7.446 9.378 7.794V12.852H8.694V3.6H9.378V5.652ZM13.05 8.226C13.05 7.566 13.143 6.945 13.329 6.363C13.515 5.781 13.788 5.268 14.148 4.824C14.508 4.38 14.952 4.029 15.48 3.771C16.008 3.513 16.614 3.384 17.298 3.384C17.982 3.384 18.588 3.513 19.116 3.771C19.644 4.029 20.088 4.38 20.448 4.824C20.808 5.268 21.081 5.781 21.267 6.363C21.453 6.945 21.546 7.566 21.546 8.226C21.546 8.886 21.453 9.51 21.267 10.098C21.081 10.686 20.808 11.199 20.448 11.637C20.088 12.075 19.644 12.423 19.116 12.681C18.588 12.939 17.982 13.068 17.298 13.068C16.614 13.068 16.008 12.939 15.48 12.681C14.952 12.423 14.508 12.075 14.148 11.637C13.788 11.199 13.515 10.686 13.329 10.098C13.143 9.51 13.05 8.886 13.05 8.226V8.226ZM13.734 8.226C13.734 8.778 13.812 9.309 13.968 9.819C14.124 10.329 14.352 10.782 14.652 11.178C14.952 11.574 15.324 11.889 15.768 12.123C16.212 12.357 16.722 12.474 17.298 12.474C17.874 12.474 18.384 12.357 18.828 12.123C19.272 11.889 19.644 11.574 19.944 11.178C20.244 10.782 20.472 10.329 20.628 9.819C20.784 9.309 20.862 8.778 20.862 8.226C20.862 7.674 20.784 7.143 20.628 6.633C20.472 6.123 20.244 5.67 19.944 5.274C19.644 4.878 19.272 4.563 18.828 4.329C18.384 4.095 17.874 3.978 17.298 3.978C16.722 3.978 16.212 4.095 15.768 4.329C15.324 4.563 14.952 4.878 14.652 5.274C14.352 5.67 14.124 6.123 13.968 6.633C13.812 7.143 13.734 7.674 13.734 8.226V8.226ZM23.148 3.6H23.832V5.58H23.868C23.988 5.232 24.159 4.923 24.381 4.653C24.603 4.383 24.861 4.152 25.155 3.96C25.449 3.768 25.77 3.624 26.118 3.528C26.466 3.432 26.82 3.384 27.18 3.384C27.72 3.384 28.179 3.45 28.557 3.582C28.935 3.714 29.244 3.888 29.484 4.104C29.724 4.32 29.913 4.563 30.051 4.833C30.189 5.103 30.288 5.376 30.348 5.652C30.408 5.928 30.444 6.195 30.456 6.453C30.468 6.711 30.474 6.936 30.474 7.128V12.852H29.79V7.002C29.79 6.774 29.772 6.486 29.736 6.138C29.7 5.79 29.595 5.457 29.421 5.139C29.247 4.821 28.983 4.548 28.629 4.32C28.275 4.092 27.786 3.978 27.162 3.978C26.634 3.978 26.166 4.074 25.758 4.266C25.35 4.458 25.002 4.725 24.714 5.067C24.426 5.409 24.207 5.817 24.057 6.291C23.907 6.765 23.832 7.284 23.832 7.848V12.852H23.148V3.6ZM35.892 4.194H33.876V10.656C33.876 11.028 33.918 11.322 34.002 11.538C34.086 11.754 34.215 11.919 34.389 12.033C34.563 12.147 34.773 12.216 35.019 12.24C35.265 12.264 35.55 12.27 35.874 12.258V12.852C35.526 12.876 35.187 12.873 34.857 12.843C34.527 12.813 34.236 12.723 33.984 12.573C33.732 12.423 33.531 12.198 33.381 11.898C33.231 11.598 33.168 11.184 33.192 10.656V4.194H31.482V3.6H33.192V0.72H33.876V3.6H35.892V4.194ZM37.386 7.614H41.238V8.298H37.386V7.614ZM43.758 8.316V8.424C43.758 8.964 43.83 9.48 43.974 9.972C44.118 10.464 44.331 10.896 44.613 11.268C44.895 11.64 45.249 11.934 45.675 12.15C46.101 12.366 46.596 12.474 47.16 12.474C48.084 12.474 48.816 12.231 49.356 11.745C49.896 11.259 50.268 10.584 50.472 9.72H51.156C50.952 10.8 50.511 11.628 49.833 12.204C49.155 12.78 48.258 13.068 47.142 13.068C46.458 13.068 45.861 12.945 45.351 12.699C44.841 12.453 44.415 12.117 44.073 11.691C43.731 11.265 43.476 10.761 43.308 10.179C43.14 9.597 43.056 8.97 43.056 8.298C43.056 7.65 43.143 7.029 43.317 6.435C43.491 5.841 43.752 5.319 44.1 4.869C44.448 4.419 44.883 4.059 45.405 3.789C45.927 3.519 46.542 3.384 47.25 3.384C47.898 3.384 48.471 3.504 48.969 3.744C49.467 3.984 49.884 4.311 50.22 4.725C50.556 5.139 50.811 5.619 50.985 6.165C51.159 6.711 51.246 7.296 51.246 7.92C51.246 7.98 51.243 8.049 51.237 8.127C51.231 8.205 51.228 8.268 51.228 8.316H43.758ZM50.544 7.722C50.52 7.218 50.436 6.741 50.292 6.291C50.148 5.841 49.935 5.445 49.653 5.103C49.371 4.761 49.029 4.488 48.627 4.284C48.225 4.08 47.766 3.978 47.25 3.978C46.698 3.978 46.212 4.083 45.792 4.293C45.372 4.503 45.018 4.779 44.73 5.121C44.442 5.463 44.22 5.862 44.064 6.318C43.908 6.774 43.812 7.242 43.776 7.722H50.544ZM52.83 3.6H53.514V5.58H53.55C53.67 5.232 53.841 4.923 54.063 4.653C54.285 4.383 54.543 4.152 54.837 3.96C55.131 3.768 55.452 3.624 55.8 3.528C56.148 3.432 56.502 3.384 56.862 3.384C57.402 3.384 57.861 3.45 58.239 3.582C58.617 3.714 58.926 3.888 59.166 4.104C59.406 4.32 59.595 4.563 59.733 4.833C59.871 5.103 59.97 5.376 60.03 5.652C60.09 5.928 60.126 6.195 60.138 6.453C60.15 6.711 60.156 6.936 60.156 7.128V12.852H59.472V7.002C59.472 6.774 59.454 6.486 59.418 6.138C59.382 5.79 59.277 5.457 59.103 5.139C58.929 4.821 58.665 4.548 58.311 4.32C57.957 4.092 57.468 3.978 56.844 3.978C56.316 3.978 55.848 4.074 55.44 4.266C55.032 4.458 54.684 4.725 54.396 5.067C54.108 5.409 53.889 5.817 53.739 6.291C53.589 6.765 53.514 7.284 53.514 7.848V12.852H52.83V3.6ZM69.318 10.872H69.282C68.898 11.604 68.418 12.153 67.842 12.519C67.266 12.885 66.564 13.068 65.736 13.068C65.04 13.068 64.44 12.936 63.936 12.672C63.432 12.408 63.018 12.054 62.694 11.61C62.37 11.166 62.13 10.653 61.974 10.071C61.818 9.489 61.74 8.88 61.74 8.244C61.74 7.56 61.824 6.921 61.992 6.327C62.16 5.733 62.415 5.22 62.757 4.788C63.099 4.356 63.528 4.014 64.044 3.762C64.56 3.51 65.166 3.384 65.862 3.384C66.234 3.384 66.6 3.435 66.96 3.537C67.32 3.639 67.653 3.786 67.959 3.978C68.265 4.17 68.532 4.41 68.76 4.698C68.988 4.986 69.162 5.31 69.282 5.67H69.318V0H70.002V12.852H69.318V10.872ZM65.88 12.474C66.468 12.474 66.975 12.354 67.401 12.114C67.827 11.874 68.181 11.556 68.463 11.16C68.745 10.764 68.955 10.311 69.093 9.801C69.231 9.291 69.3 8.772 69.3 8.244C69.3 7.704 69.231 7.179 69.093 6.669C68.955 6.159 68.748 5.703 68.472 5.301C68.196 4.899 67.839 4.578 67.401 4.338C66.963 4.098 66.45 3.978 65.862 3.978C65.25 3.978 64.728 4.095 64.296 4.329C63.864 4.563 63.507 4.878 63.225 5.274C62.943 5.67 62.739 6.126 62.613 6.642C62.487 7.158 62.424 7.692 62.424 8.244C62.424 8.784 62.493 9.309 62.631 9.819C62.769 10.329 62.979 10.782 63.261 11.178C63.543 11.574 63.9 11.889 64.332 12.123C64.764 12.357 65.28 12.474 65.88 12.474V12.474ZM77.31 0H81.522C82.674 0 83.631 0.179998 84.393 0.54C85.155 0.900002 85.764 1.38 86.22 1.98C86.676 2.58 86.997 3.264 87.183 4.032C87.369 4.8 87.462 5.592 87.462 6.408C87.462 7.32 87.345 8.169 87.111 8.955C86.877 9.741 86.514 10.422 86.022 10.998C85.53 11.574 84.909 12.027 84.159 12.357C83.409 12.687 82.518 12.852 81.486 12.852H77.31V0ZM81.558 12.168C82.158 12.168 82.761 12.075 83.367 11.889C83.973 11.703 84.522 11.391 85.014 10.953C85.506 10.515 85.905 9.927 86.211 9.189C86.517 8.451 86.67 7.52401 86.67 6.408C86.67 5.532 86.583 4.782 86.409 4.158C86.235 3.534 86.007 3.009 85.725 2.583C85.443 2.157 85.119 1.821 84.753 1.575C84.387 1.329 84.009 1.14 83.619 1.008C83.229 0.875999 82.839 0.789 82.449 0.747C82.059 0.705 81.708 0.684 81.396 0.684H78.102V12.168H81.558ZM89.46 8.316V8.424C89.46 8.964 89.532 9.48 89.676 9.972C89.82 10.464 90.033 10.896 90.315 11.268C90.597 11.64 90.951 11.934 91.377 12.15C91.803 12.366 92.298 12.474 92.862 12.474C93.786 12.474 94.518 12.231 95.058 11.745C95.598 11.259 95.97 10.584 96.174 9.72H96.858C96.654 10.8 96.213 11.628 95.535 12.204C94.857 12.78 93.96 13.068 92.844 13.068C92.16 13.068 91.563 12.945 91.053 12.699C90.543 12.453 90.117 12.117 89.775 11.691C89.433 11.265 89.178 10.761 89.01 10.179C88.842 9.597 88.758 8.97 88.758 8.298C88.758 7.65 88.845 7.029 89.019 6.435C89.193 5.841 89.454 5.319 89.802 4.869C90.15 4.419 90.585 4.059 91.107 3.789C91.629 3.519 92.244 3.384 92.952 3.384C93.6 3.384 94.173 3.504 94.671 3.744C95.169 3.984 95.586 4.311 95.922 4.725C96.258 5.139 96.513 5.619 96.687 6.165C96.861 6.711 96.948 7.296 96.948 7.92C96.948 7.98 96.945 8.049 96.939 8.127C96.933 8.205 96.93 8.268 96.93 8.316H89.46ZM96.246 7.722C96.222 7.218 96.138 6.741 95.994 6.291C95.85 5.841 95.637 5.445 95.355 5.103C95.073 4.761 94.731 4.488 94.329 4.284C93.927 4.08 93.468 3.978 92.952 3.978C92.4 3.978 91.914 4.083 91.494 4.293C91.074 4.503 90.72 4.779 90.432 5.121C90.144 5.463 89.922 5.862 89.766 6.318C89.61 6.774 89.514 7.242 89.478 7.722H96.246ZM102.06 12.852H101.214L97.488 3.6H98.28L101.628 12.06H101.664L104.796 3.6H105.552L102.06 12.852ZM106.794 8.316V8.424C106.794 8.964 106.866 9.48 107.01 9.972C107.154 10.464 107.367 10.896 107.649 11.268C107.931 11.64 108.285 11.934 108.711 12.15C109.137 12.366 109.632 12.474 110.196 12.474C111.12 12.474 111.852 12.231 112.392 11.745C112.932 11.259 113.304 10.584 113.508 9.72H114.192C113.988 10.8 113.547 11.628 112.869 12.204C112.191 12.78 111.294 13.068 110.178 13.068C109.494 13.068 108.897 12.945 108.387 12.699C107.877 12.453 107.451 12.117 107.109 11.691C106.767 11.265 106.512 10.761 106.344 10.179C106.176 9.597 106.092 8.97 106.092 8.298C106.092 7.65 106.179 7.029 106.353 6.435C106.527 5.841 106.788 5.319 107.136 4.869C107.484 4.419 107.919 4.059 108.441 3.789C108.963 3.519 109.578 3.384 110.286 3.384C110.934 3.384 111.507 3.504 112.005 3.744C112.503 3.984 112.92 4.311 113.256 4.725C113.592 5.139 113.847 5.619 114.021 6.165C114.195 6.711 114.282 7.296 114.282 7.92C114.282 7.98 114.279 8.049 114.273 8.127C114.267 8.205 114.264 8.268 114.264 8.316H106.794ZM113.58 7.722C113.556 7.218 113.472 6.741 113.328 6.291C113.184 5.841 112.971 5.445 112.689 5.103C112.407 4.761 112.065 4.488 111.663 4.284C111.261 4.08 110.802 3.978 110.286
 3.978C109.734 3.978 109.248 4.083 108.828 4.293C108.408 4.503 108.054 4.779 107.766 5.121C107.478 5.463 107.256 5.862 107.1 6.318C106.944 6.774 106.848 7.242 106.812 7.722H113.58ZM116.712 0V12.852H116.028V0H116.712ZM118.458 8.226C118.458 7.566 118.551 6.945 118.737 6.363C118.923 5.781 119.196 5.268 119.556 4.824C119.916 4.38 120.36 4.029 120.888 3.771C121.416 3.513 122.022 3.384 122.706 3.384C123.39 3.384 123.996 3.513 124.524 3.771C125.052 4.029 125.496 4.38 125.856 4.824C126.216 5.268 126.489 5.781 126.675 6.363C126.861 6.945 126.954 7.566 126.954 8.226C126.954 8.886 126.861 9.51 126.675 10.098C126.489 10.686 126.216 11.199 125.856 11.637C125.496 12.075 125.052 12.423 124.524 12.681C123.996 12.939 123.39 13.068 122.706 13.068C122.022 13.068 121.416 12.939 120.888 12.681C120.36 12.423 119.916 12.075 119.556 11.637C119.196 11.199 118.923 10.686 118.737 10.098C118.551 9.51 118.458 8.886 118.458 8.226V8.226ZM119.142 8.226C119.142 8.778 119.22 9.309 119.376 9.819C119.532 10.329 119.76 10.782 120.06 11.178C120.36 11.574 120.732 11.889 121.176 12.123C121.62 12.357 122.13 12.474 122.706 12.474C123.282 12.474 123.792 12.357 124.236 12.123C124.68 11.889 125.052 11.574 125.352 11.178C125.652 10.782 125.88 10.329 126.036 9.819C126.192 9.309 126.27 8.778 126.27 8.226C126.27 7.674 126.192 7.143 126.036 6.633C125.88 6.123 125.652 5.67 125.352 5.274C125.052 4.878 124.68 4.563 124.236 4.329C123.792 4.095 123.282 3.978 122.706 3.978C122.13 3.978 121.62 4.095 121.176 4.329C120.732 4.563 120.36 4.878 120.06 5.274C119.76 5.67 119.532 6.123 119.376 6.633C119.22 7.143 119.142 7.674 119.142 8.226V8.226ZM129.402 5.724H129.438C129.51 5.496 129.63 5.244 129.798 4.968C129.966 4.692 130.188 4.437 130.464 4.203C130.74 3.969 131.073 3.774 131.463 3.618C131.853 3.462 132.3 3.384 132.804 3.384C133.512 3.384 134.127 3.516 134.649 3.78C135.171 4.044 135.603 4.398 135.945 4.842C136.287 5.286 136.542 5.802 136.71 6.39C136.878 6.978 136.962 7.596 136.962 8.244C136.962 8.952 136.878 9.6 136.71 10.188C136.542 10.776 136.287 11.283 135.945 11.709C135.603 12.135 135.171 12.468 134.649 12.708C134.127 12.948 133.512 13.068 132.804 13.068C132.036 13.068 131.352 12.9 130.752 12.564C130.152 12.228 129.714 11.682 129.438 10.926H129.402V16.164H128.718V3.6H129.402V5.724ZM132.804 12.474C133.404 12.474 133.923 12.36 134.361 12.132C134.799 11.904 135.159 11.598 135.441 11.214C135.723 10.83 135.933 10.383 136.071 9.873C136.209 9.363 136.278 8.82 136.278 8.244C136.278 7.716 136.212 7.197 136.08 6.687C135.948 6.177 135.744 5.721 135.468 5.319C135.192 4.917 134.835 4.593 134.397 4.347C133.959 4.101 133.428 3.978 132.804 3.978C132.192 3.978 131.67 4.098 131.238 4.338C130.806 4.578 130.455 4.896 130.185 5.292C129.915 5.688 129.72 6.141 129.6 6.651C129.48 7.161 129.42 7.692 129.42 8.244C129.42 8.796 129.474 9.327 129.582 9.837C129.69 10.347 129.873 10.797 130.131 11.187C130.389 11.577 130.737 11.889 131.175 12.123C131.613 12.357 132.156 12.474 132.804 12.474V12.474ZM138.834 8.316V8.424C138.834 8.964 138.906 9.48 139.05 9.972C139.194 10.464 139.407 10.896 139.689 11.268C139.971 11.64 140.325 11.934 140.751 12.15C141.177 12.366 141.672 12.474 142.236 12.474C143.16 12.474 143.892 12.231 144.432 11.745C144.972 11.259 145.344 10.584 145.548 9.72H146.232C146.028 10.8 145.587 11.628 144.909 12.204C144.231 12.78 143.334 13.068 142.218 13.068C141.534 13.068 140.937 12.945 140.427 12.699C139.917 12.453 139.491 12.117 139.149 11.691C138.807 11.265 138.552 10.761 138.384 10.179C138.216 9.597 138.132 8.97 138.132 8.298C138.132 7.65 138.219 7.029 138.393 6.435C138.567 5.841 138.828 5.319 139.176 4.869C139.524 4.419 139.959 4.059 140.481 3.789C141.003 3.519 141.618 3.384 142.326 3.384C142.974 3.384 143.547 3.504 144.045 3.744C144.543 3.984 144.96 4.311 145.296 4.725C145.632 5.139 145.887 5.619 146.061 6.165C146.235 6.711 146.322 7.296 146.322 7.92C146.322 7.98 146.319 8.049 146.313 8.127C146.307 8.205 146.304 8.268 146.304 8.316H138.834ZM145.62 7.722C145.596 7.218 145.512 6.741 145.368 6.291C145.224 5.841 145.011 5.445 144.729 5.103C144.447 4.761 144.105 4.488 143.703 4.284C143.301 4.08 142.842 3.978 142.326 3.978C141.774 3.978 141.288 4.083 140.868 4.293C140.448 4.503 140.094 4.779 139.806 5.121C139.518 5.463 139.296 5.862 139.14 6.318C138.984 6.774 138.888 7.242 138.852 7.722H145.62ZM148.59 5.652H148.644C148.728 5.352 148.881 5.07 149.103 4.806C149.325 4.542 149.595 4.314 149.913 4.122C150.231 3.93 150.585 3.783 150.975 3.681C151.365 3.579 151.77 3.534 152.19 3.546V4.23C151.83 4.182 151.419 4.218 150.957 4.338C150.495 4.458 150.054 4.722 149.634 5.13C149.466 5.31 149.319 5.484 149.193 5.652C149.067 5.82 148.962 6.006 148.878 6.21C148.794 6.414 148.728 6.642 148.68 6.894C148.632 7.146 148.602 7.446 148.59 7.794V12.852H147.906V3.6H148.59V5.652ZM156.654 0.684V0H166.5V0.684H161.964V12.852H161.172V0.684H156.654ZM165.798 8.316V8.424C165.798 8.964 165.87 9.48 166.014 9.972C166.158 10.464 166.371 10.896 166.653 11.268C166.935 11.64 167.289 11.934 167.715 12.15C168.141 12.366 168.636 12.474 169.2 12.474C170.124 12.474 170.856 12.231 171.396 11.745C171.936 11.259 172.308 10.584 172.512 9.72H173.196C172.992 10.8 172.551 11.628 171.873 12.204C171.195 12.78 170.298 13.068 169.182 13.068C168.498 13.068 167.901 12.945 167.391 12.699C166.881 12.453 166.455 12.117 166.113 11.691C165.771 11.265 165.516 10.761 165.348 10.179C165.18 9.597 165.096 8.97 165.096 8.298C165.096 7.65 165.183 7.029 165.357 6.435C165.531 5.841 165.792 5.319 166.14 4.869C166.488 4.419 166.923 4.059 167.445 3.789C167.967 3.519 168.582 3.384 169.29 3.384C169.938 3.384 170.511 3.504 171.009 3.744C171.507 3.984 171.924 4.311 172.26 4.725C172.596 5.139 172.851 5.619 173.025 6.165C173.199 6.711 173.286 7.296 173.286 7.92C173.286 7.98 173.283 8.049 173.277 8.127C173.271 8.205 173.268 8.268 173.268 8.316H165.798ZM172.584 7.722C172.56 7.218 172.476 6.741 172.332 6.291C172.188 5.841 171.975 5.445 171.693 5.103C171.411 4.761 171.069 4.488 170.667 4.284C170.265 4.08 169.806 3.978 169.29 3.978C168.738 3.978 168.252 4.083 167.832 4.293C167.412 4.503 167.058 4.779 166.77 5.121C166.482 5.463 166.26 5.862 166.104 6.318C165.948 6.774 165.852 7.242 165.816 7.722H172.584ZM175.194 9.774C175.218 10.206 175.314 10.587 175.482 10.917C175.65 11.247 175.869 11.529 176.139 11.763C176.409 11.997 176.724 12.174 177.084 12.294C177.444 12.414 177.834 12.474 178.254 12.474C178.554 12.474 178.875 12.447 179.217 12.393C179.559 12.339 179.877 12.24 180.171 12.096C180.465 11.952 180.708 11.751 180.9 11.493C181.092 11.235 181.188 10.908 181.188 10.512C181.188 9.996 181.032 9.606 180.72 9.342C180.408 9.078 180.015 8.874 179.541 8.73C179.067 8.586 178.557 8.469 178.011 8.379C177.465 8.289 176.955 8.154 176.481 7.974C176.007 7.794 175.614 7.539 175.302 7.209C174.99 6.879 174.834 6.396 174.834 5.76C174.834 5.304 174.936 4.923 175.14 4.617C175.344 4.311 175.605 4.068 175.923 3.888C176.241 3.708 176.598 3.579 176.994 3.501C177.39 3.423 177.786 3.384 178.182 3.384C178.662 3.384 179.112 3.438 179.532 3.546C179.952 3.654 180.315 3.828 180.621 4.068C180.927 4.308 181.167 4.614 181.341 4.986C181.515 5.358 181.602 5.808 181.602 6.336H180.918C180.918 5.916 180.849 5.556 180.711 5.256C180.573 4.956 180.381 4.713 180.135 4.527C179.889 4.341 179.598 4.203 179.262 4.113C178.926 4.023 178.566 3.978 178.182 3.978C177.87 3.978 177.555 4.008 177.237 4.068C176.919 4.128 176.634 4.23 176.382 4.374C176.13 4.518 175.923 4.704 175.761 4.932C175.599 5.16 175.518 5.436 175.518 5.76C175.518 6.132 175.608 6.432 175.788 6.66C175.968 6.888 176.205 7.071 176.499 7.209C176.793 7.347 177.123 7.458 177.489 7.542C177.855 7.626 178.224 7.71 178.596 7.794C179.052 7.878 179.481 7.977 179.883 8.091C180.285 8.205 180.633 8.361 180.927 8.559C181.221 8.757 181.452 9.012 181.62 9.324C181.788 9.636 181.872 10.032 181.872 10.512C181.872 11.016 181.758 11.43 181.53 11.754C181.302 12.078 181.014 12.339 180.666 12.537C180.318 12.735 179.931 12.873 179.505 12.951C179.079 13.029 178.662 13.068 178.254 13.068C177.726 13.068 177.237 12.999 176.787 12.861C176.337 12.723 175.944 12.513 175.608 12.231C175.272 11.949 175.008 11.604 174.816 11.196C174.624 10.788 174.522 10.314 174.51 9.774H175.194ZM186.93 4.194H184.914V10.656C184.914 11.028 184.956 11.322 185.04 11.538C185.124 11.754 185.253 11.919 185.427 12.033C185.601 12.147 185.811 12.216 186.057 12.24C186.303 12.264 186.588 12.27 186.912 12.258V12.852C186.564 12.876 186.225 12.873 185.895 12.843C185.565 12.813 185.274 12.723 185.022 12.573C184.77 12.423 184.569 12.198 184.419 11.898C184.269 11.598 184.206 11.184 184.23 10.656V4.194H182.52V3.6H184.23V0.72H184.914V3.6H186.93V4.194ZM191.934 0.684V0H201.78V0.684H197.244V12.852H196.452V0.684H191.934ZM206.946 11.016H206.91C206.802 11.292 206.646 11.553 206.442 11.799C206.238 12.045 205.989 12.264 205.695 12.456C205.401 12.648 205.068 12.798 204.696 12.906C204.324 13.014 203.916 13.068 203.472 13.068C202.488 13.068 201.726 12.855 201.186 12.429C200.646 12.003 200.376 11.346 200.376 10.458C200.376 9.918 200.484 9.477 200.7 9.135C200.916 8.793 201.189 8.523 201.519 8.325C201.849 8.127 202.215 7.986 202.617 7.902C203.019 7.818 203.406 7.758 203.778 7.722L204.84 7.632C205.332 7.596 205.719 7.539 206.001 7.461C206.283 7.383 206.496 7.275 206.64 7.137C206.784 6.999 206.874 6.822 206.91 6.606C206.946 6.39 206.964 6.12 206.964 5.796C206.964 5.544 206.916 5.31 206.82 5.094C206.724 4.878 206.574 4.686 206.37 4.518C206.166 4.35 205.902 4.218 205.578 4.122C205.254 4.026 204.858 3.978 204.39 3.978C203.562 3.978 202.893 4.182 202.383 4.59C201.873 4.998 201.594 5.616 201.546 6.444H200.862C200.91 5.42399 201.237 4.659 201.843 4.149C202.449 3.639 203.31 3.384 204.426 3.384C205.542 3.384 206.355 3.603 206.865 4.041C207.375 4.479 207.63 5.052 207.63 5.76V11.142C207.63 11.274 207.633 11.406 207.639 11.538C207.645 11.67 207.666 11.79 207.702 11.898C207.738 12.006 207.798 12.093 207.882 12.159C207.966 12.225 208.086 12.258 208.242 12.258C208.362 12.258 208.53 12.24 208.746 12.204V12.78C208.566 12.828 208.38 12.852 208.188 12.852C207.912 12.852 207.693 12.816 207.531 12.744C207.369 12.672 207.246 12.576 207.162 12.456C207.078 12.336 207.021 12.195 206.991 12.033C206.961 11.871 206.946 11.694 206.946 11.502V11.016ZM206.946 7.596C206.778 7.8 206.523 7.938 206.181 8.01C205.839 8.082 205.458 8.136 205.038 8.172L203.886 8.28C203.55 8.316 203.214 8.367 202.878 8.433C202.542 8.499 202.239 8.61 201.969 8.766C201.699 8.922 201.48 9.135 201.312 9.405C201.144 9.675 201.06 10.026 201.06 10.458C201.06 11.142 201.276 11.649 201.708 11.979C202.14 12.309 202.734 12.474 203.49 12.474C204.27 12.474 204.888 12.333 205.344 12.051C205.8 11.769 206.148 11.445 206.388 11.079C206.628 10.713 206.781 10.359 206.847 10.017C206.913 9.675 206.946 9.444 206.946 9.324V7.596ZM210.132 9.774C210.156 10.206 210.252 10.587 210.42 10.917C210.588 11.247 210.807 11.529 211.077 11.763C211.347 11.997 211.662 12.174 212.022 12.294C212.382 12.414 212.772 12.474 213.192 12.474C213.492 12.474 213.813 12.447 214.155 12.393C214.497 12.339 214.815 12.24 215.109 12.096C215.403 11.952 215.646 11.751 215.838 11.493C216.03 11.235 216.126 10.908 216.126 10.512C216.126 9.996 215.97 9.606 215.658 9.342C215.346 9.078 214.953 8.874 214.479 8.73C214.005 8.586 213.495 8.469 212.949 8.379C212.403 8.289 211.893 8.154 211.419 7.974C210.945 7.794 210.552 7.539 210.24 7.209C209.928 6.879 209.772 6.396 209.772 5.76C209.772 5.304 209.874 4.923 210.078 4.617C210.282 4.311 210.543 4.068 210.861 3.888C211.179 3.708 211.536 3.579 211.932 3.501C212.328 3.423 212.724 3.384 213.12 3.384C213.6 3.384 214.05 3.438 214.47 3.546C214.89 3.654 215.253 3.828 215.559 4.068C215.865 4.308 216.105 4.614 216.279 4.986C216.453 5.358 216.54 5.808 216.54 6.336H215.856C215.856 5.916 215.787 5.556 215.649 5.256C215.511 4.956 215.319 4.713 215.073 4.527C214.827 4.341 214.536 4.203 214.2 4.113C213.864 4.023 213.504 3.978 213.12 3.978C212.808 3.978 212.493 4.008 212.175 4.068C211.857 4.128 211.572 4.23 211.32 4.374C211.068 4.518 210.861 4.704 210.699 4.932C210.537 5.16 210.456 5.436 210.456 5.76C210.456 6.132 210.546 6.432 210.726 6.66C210.906 6.888 211.143 7.071 211.437 7.209C211.731 7.347 212.061 7.458 212.427 7.542C212.793 7.626 213.162 7.71 213.534 7.794C213.99 7.878 214.419 7.977 214.821 8.091C215.223 8.205 215.571 8.361 215.865 8.559C216.159 8.757 216.39 9.012 216.558 9.324C216.726 9.636 216.81 10.032 216.81 10.512C216.81 11.016 216.696 11.43 216.468 11.754C216.24 12.078 215.952 12.339 215.604 12.537C215.256 12.735 214.869 12.873 214.443 12.951C214.017 13.029 213.6 13.068 213.192 13.068C212.664 13.068 212.175 12.999 211.725 12.861C211.275 12.723 210.882 12.513 210.546 12.231C210.21 11.949 209.946 11.604 209.754 11.196C209.562 10.788 209.46 10.314 209.448 9.774H210.132ZM218.502 0H219.186V8.514L224.892 3.6H225.882L221.832 7.056L226.17 12.852H225.234L221.292 7.578L219.186 9.36V12.852H218.502V0Z" fill="#5A1094"/>
</svg>
